# xmcd
#
# Track frame offsets: 
#        150
#        9217
#        17590
#        28090
#        41997
#        52541
#        61488
#        72877
#        83425
#        96559
#        106653
#        116811
#        127030
#        139760
#        150337
#        160361
#        171487
#        181775
#
# Disc length: 2563 seconds
#
# Revision: 0
# Processed by: cddbd v1.5.1PL0 Copyright (c) Steve Scherf et al.
# Submitted via: ExactAudioCopy v0.95a5
#
DISCID=e30a0112
DTITLE=The Vibrations - Out Of Sight!! The Checker Years [CD2]
DYEAR=2004
DGENRE=R&B/Soul
TTITLE0=Peanut Butter
TTITLE1=Down In New Orleans (as The Marathons)
TTITLE2=Don't Say Goodbye
TTITLE3=Stranded In The Jungle
TTITLE4=All My Love Belongs To You
TTITLE5=Let's Pony Again
TTITLE6=What Made You Change Your Mind
TTITLE7=Over The Rainbow
TTITLE8=Oh Cindy
TTITLE9=The New Hully Gully
TTITLE10=Any Time
TTITLE11=If He Don't
TTITLE12=Hamburger On A Bun
TTITLE13=Since I Fell For You
TTITLE14=May The Best Man Win
TTITLE15=Dancing Danny
TTITLE16=Don't Say Goodbye
TTITLE17=All My Love Belongs To You
EXTD=
EXTT0=
EXTT1=
EXTT2=
EXTT3=
EXTT4=
EXTT5=
EXTT6=
EXTT7=
EXTT8=
EXTT9=
EXTT10=
EXTT11=
EXTT12=
EXTT13=
EXTT14=
EXTT15=
EXTT16=
EXTT17=
PLAYORDER=
